<svg width="64" height="64" viewBox="0 0 64 64" fill="none" xmlns="http://www.w3.org/2000/svg">
<circle cx="32" cy="32" r="32" fill="#F49239"/>
<path fill-rule="evenodd" clip-rule="evenodd" d="M23.585 21.885C25.8168 19.6532 28.8438 18.3994 32 18.3994C35.1562 18.3994 38.1832 19.6532 40.415 21.885C42.6468 24.1168 43.9006 27.1438 43.9006 30.3C43.9006 33.4562 42.6468 36.4832 40.415 38.715L32 47.13L23.585 38.715C22.4799 37.61 21.6032 36.2981 21.0051 34.8542C20.407 33.4104 20.0992 31.8628 20.0992 30.3C20.0992 28.7372 20.407 27.1896 21.0051 25.7458C21.6032 24.3019 22.4799 22.99 23.585 21.885ZM32 33.7C32.9017 33.7 33.7666 33.3418 34.4042 32.7042C35.0418 32.0665 35.4 31.2017 35.4 30.3C35.4 29.3983 35.0418 28.5335 34.4042 27.8958C33.7666 27.2582 32.9017 26.9 32 26.9C31.0983 26.9 30.2335 27.2582 29.5958 27.8958C28.9582 28.5335 28.6 29.3983 28.6 30.3C28.6 31.2017 28.9582 32.0665 29.5958 32.7042C30.2335 33.3418 31.0983 33.7 32 33.7Z" fill="white"/>
</svg>
