<svg width="94" height="94" viewBox="0 0 94 94" fill="none" xmlns="http://www.w3.org/2000/svg">
<g id="up-right-arrow 4" clip-path="url(#clip0_9_36)">
<g id="ICON">
<path id="Vector" fill-rule="evenodd" clip-rule="evenodd" d="M18.7025 64.1862C66.624 64.7594 83.0731 30.2994 83.0731 30.2994C83.5236 29.3613 83.1295 28.2335 82.1908 27.7815C81.2531 27.33 80.1249 27.7251 79.6729 28.6638C79.6729 28.6638 63.507 61.9593 16.5819 60.3643C18.6354 58.3113 20.8885 56.5746 23.0497 54.6395C23.8249 53.9445 23.8914 52.7516 23.1969 51.9753C22.502 51.2 21.3086 51.1346 20.5328 51.8281C18.1261 53.9841 15.6145 55.9097 13.3647 58.2564C13.1383 58.4927 11.2764 60.4642 11.0133 61.0117C10.5544 61.9668 10.9079 62.6795 11.1625 63.0347C12.0353 64.2527 13.3411 65.3189 14.8071 66.2602C16.6759 67.4606 18.814 68.4609 20.323 69.4638C21.1904 70.0394 22.3615 69.8039 22.9381 68.937C23.5137 68.0697 23.2776 66.8971 22.4103 66.3215C21.3721 65.6316 20.0433 64.9393 18.7025 64.1862Z" fill="#1D1237"/>
</g>
</g>
<defs>
<clipPath id="clip0_9_36">
<rect width="71.3757" height="71.3757" fill="white" transform="translate(65.7865 93.4746) rotate(-157.175)"/>
</clipPath>
</defs>
</svg>
