<svg width="132" height="161" viewBox="0 0 132 161" fill="none" xmlns="http://www.w3.org/2000/svg">
<path fill-rule="evenodd" clip-rule="evenodd" d="M60.4901 64.0955C60.4709 64.6805 60.5599 65.289 60.6491 65.8963C60.9368 69.1311 61.2189 72.8916 62.5736 75.928C64.3929 79.9194 67.0099 81.8967 69.9324 82.5295C74.0463 83.4169 78.9449 81.3459 82.4785 77.7863C86.0035 74.2644 88.2524 69.3627 87.5738 64.849C87.1389 61.7624 85.3134 58.7986 81.5097 56.545C77.2121 53.9659 72.5011 54.208 68.0031 56.0133C66.2622 56.6787 64.6908 57.5984 63.0914 58.6412C63.1668 56.8084 63.2457 54.9582 63.3307 53.0833C63.8056 46.9896 64.9968 40.7416 66.6705 34.87C68.7798 27.0794 72.1083 19.9243 76.7822 13.3428C77.1507 12.7201 77.0011 11.8776 76.4159 11.454C75.8304 11.0315 75.0023 11.1797 74.5258 11.7778C69.6789 18.6211 66.1751 26.0474 63.9956 34.1469C62.3907 40.2158 61.0515 46.6187 60.6455 52.9087C60.5067 55.5208 60.3783 58.0866 60.3644 60.6488C57.1538 63.2858 54.4023 66.4007 52.5278 69.1549C40.3757 87.6671 44.0187 117.138 49.5768 137.674C49.7552 138.389 50.4564 138.805 51.1813 138.613C51.9065 138.42 52.3032 137.673 52.1249 136.958C46.7571 117.084 43.0122 88.5587 54.8007 70.6475C56.1873 68.5412 58.1914 66.2173 60.4901 64.0955ZM63.1368 61.9436C63.0904 63.1482 63.1531 64.3696 63.3252 65.6124C63.67 68.5956 63.7968 72.038 64.985 74.8073C66.3457 77.8178 68.2571 79.4066 70.4219 79.8754C73.8858 80.6243 77.7161 78.7571 80.5298 75.8676C83.4598 72.9658 85.4996 68.9841 84.8726 65.243C84.5088 62.8438 83.0851 60.6093 80.1859 58.8734C76.5833 56.7348 72.6591 57.0158 69.0243 58.5198C66.9087 59.3352 64.9323 60.5377 63.1368 61.9436Z" fill="white"/>
<path fill-rule="evenodd" clip-rule="evenodd" d="M52.1528 150.118C51.7965 149.723 51.4738 149.178 51.1514 148.633C50.4987 147.577 49.9424 146.489 49.3729 145.852C45.9731 141.959 41.8476 137.332 37.3633 134.677C36.894 134.386 36.2323 134.549 35.9392 135.054C35.6464 135.557 35.7685 136.198 36.3227 136.509C40.5665 139.043 44.4632 143.502 47.8052 147.256C48.3659 147.932 49.0485 149.247 49.6964 150.324C50.2899 151.248 50.918 152.019 51.6326 152.41C52.0222 152.659 52.8246 152.663 53.5508 151.823C54.5372 150.622 55.9858 146.996 56.1533 146.651C57.8394 143.155 59.4247 140.103 63.1785 138.506C63.6789 138.267 63.9106 137.639 63.7607 137.12C63.5258 136.582 62.8698 136.326 62.3692 136.566C58.1171 138.392 56.1038 141.757 54.2157 145.75C54.1548 146.018 53.3049 148.189 52.441 149.636C52.3178 149.786 52.2754 149.971 52.1528 150.118Z" fill="white"/>
</svg>
