<svg width="94" height="94" viewBox="0 0 94 94" fill="none" xmlns="http://www.w3.org/2000/svg">
<g id="up-right-arrow 3" clip-path="url(#clip0_9_33)">
<g id="ICON">
<path id="Vector" fill-rule="evenodd" clip-rule="evenodd" d="M74.7721 64.1862C26.8506 64.7594 10.4015 30.2994 10.4015 30.2994C9.951 29.3613 10.3451 28.2335 11.2838 27.7815C12.2215 27.33 13.3497 27.7251 13.8017 28.6638C13.8017 28.6638 29.9676 61.9593 76.8927 60.3643C74.8392 58.3113 72.5861 56.5746 70.4249 54.6395C69.6497 53.9445 69.5832 52.7516 70.2777 51.9753C70.9726 51.2 72.166 51.1346 72.9419 51.8281C75.3485 53.9841 77.8602 55.9097 80.1099 58.2564C80.3363 58.4927 82.1982 60.4642 82.4613 61.0117C82.9202 61.9668 82.5668 62.6795 82.3121 63.0347C81.4393 64.2527 80.1336 65.3189 78.6675 66.2602C76.7987 67.4606 74.6606 68.4609 73.1516 69.4638C72.2842 70.0394 71.1131 69.8039 70.5365 68.937C69.9609 68.0697 70.197 66.8971 71.0643 66.3215C72.1025 65.6316 73.4313 64.9393 74.7721 64.1862Z" fill="#1C1035"/>
</g>
</g>
<defs>
<clipPath id="clip0_9_33">
<rect width="71.3757" height="71.3757" fill="white" transform="matrix(0.921693 -0.38792 -0.38792 -0.921693 27.6881 93.4746)"/>
</clipPath>
</defs>
</svg>
